PathFileType  4	(X/Y/Z) C:\Users\wagnerel85475\Documents\Thesis\opencap-core\Data\3375ffbc-daeb-4a43-b4f7-ac9899cd4c71\MarkerData\PreAugmentation
DataRate	CameraRate	NumFrames	NumMarkers	Units	OrigDataRate	OrigDataStartFrame	OrigNumFrames
60.0	60.0	14	20	m	60.0	1	822
Frame#	Time	Neck			RShoulder			RElbow			RWrist			LShoulder			LElbow			LWrist			midHip			RHip			RKnee			RAnkle			LHip			LKnee			LAnkle			LBigToe			LSmallToe			LHeel			RBigToe			RSmallToe			RHeel			
		X1	Y1	Z1	X2	Y2	Z2	X3	Y3	Z3	X4	Y4	Z4	X5	Y5	Z5	X6	Y6	Z6	X7	Y7	Z7	X8	Y8	Z8	X9	Y9	Z9	X10	Y10	Z10	X11	Y11	Z11	X12	Y12	Z12	X13	Y13	Z13	X14	Y14	Z14	X15	Y15	Z15	X16	Y16	Z16	X17	Y17	Z17	X18	Y18	Z18	X19	Y19	Z19	X20	Y20	Z20	

1	0.0000000	0.5860100	1.3775800	-0.0492100	0.6064000	1.3634600	0.1198500	0.5681700	1.0490300	0.1997100	0.6541900	0.7676500	0.2468400	0.5706900	1.4059700	-0.2243200	0.7362700	1.5797500	-0.4288600	0.8421500	1.8533400	-0.4136100	0.6525600	0.8086900	-0.0568800	0.6615200	0.8088200	0.0695600	0.5621900	0.2964600	0.0725800	0.4956200	-0.1713700	0.1188900	0.6518800	0.8100600	-0.1843100	0.5366000	0.3077900	-0.1848500	0.5293400	-0.1761300	-0.2404000	0.7778400	-0.2181400	-0.2827100	0.7256300	-0.2215600	-0.3218400	0.4683700	-0.2472100	-0.2230600	0.6868100	-0.2456800	0.1771200	0.6470100	-0.2454000	0.2178500	0.4745200	-0.2195000	0.1024200
2	0.0166667	0.5863500	1.3776600	-0.0486300	0.6061900	1.3636200	0.1200500	0.5684000	1.0489400	0.1996500	0.6540300	0.7633500	0.2465900	0.5804100	1.4088100	-0.2204400	0.7275800	1.5953700	-0.4242700	0.8413000	1.8646100	-0.4137800	0.6523000	0.8126800	-0.0566600	0.6521600	0.8078600	0.0664800	0.5626800	0.2965100	0.0723600	0.4955900	-0.1715800	0.1188900	0.6518700	0.8140600	-0.1841400	0.5364900	0.3080600	-0.1849100	0.5293600	-0.1761800	-0.2404100	0.7694800	-0.2209700	-0.2860300	0.7172800	-0.2243800	-0.3252600	0.4687400	-0.2471300	-0.2231500	0.6873200	-0.2456600	0.1772400	0.6386500	-0.2484700	0.2222100	0.4749300	-0.2191800	0.1026800
3	0.0333333	0.5964000	1.3774600	-0.0454100	0.6063900	1.3635800	0.1198200	0.5681600	1.0488500	0.1996000	0.6541600	0.7634300	0.2465900	0.5815100	1.4086200	-0.2200400	0.7363900	1.6039800	-0.4199400	0.8414100	1.8854900	-0.4122800	0.6524600	0.8127200	-0.0566400	0.6614700	0.8088400	0.0695900	0.5614800	0.3004800	0.0730900	0.4956100	-0.1713500	0.1188900	0.6433900	0.8132300	-0.1801800	0.5366900	0.3079100	-0.1848100	0.5290600	-0.1800900	-0.2409100	0.7779100	-0.2181700	-0.2826600	0.7257300	-0.2216400	-0.3217800	0.4683200	-0.2473100	-0.2231000	0.6969200	-0.2421100	0.1800800	0.6393200	-0.2451700	0.2218800	0.4745400	-0.2197200	0.1024300
4	0.0500000	0.5862500	1.3778200	-0.0486500	0.5963000	1.3638000	0.1169200	0.5683800	1.0488800	0.1994400	0.6539600	0.7633300	0.2465800	0.5707200	1.4242600	-0.2242700	0.7364300	1.6115900	-0.4194400	0.8153700	1.8962700	-0.4014600	0.6522900	0.8127400	-0.0566200	0.6520000	0.8078400	0.0664700	0.5718100	0.3029100	0.0759700	0.4955100	-0.1715500	0.1188700	0.6520200	0.8142300	-0.1840900	0.5460200	0.3102200	-0.1811800	0.5293900	-0.1761600	-0.2403900	0.7775700	-0.2181500	-0.2823800	0.7254900	-0.2215600	-0.3215000	0.4689500	-0.2436000	-0.2226600	0.6971700	-0.2387000	0.1808100	0.6492800	-0.2415000	0.2244400	0.4636400	-0.2223700	0.0995800
5	0.0666667	0.5760200	1.3813200	-0.0528600	0.5964700	1.3637100	0.1166900	0.5678000	1.0459100	0.1996300	0.6540300	0.7634200	0.2465400	0.5702900	1.4248300	-0.2242800	0.7267800	1.6160400	-0.4163600	0.7894100	1.9036700	-0.3903100	0.6524000	0.8127600	-0.0566500	0.6514900	0.8077500	0.0662800	0.5712600	0.3028500	0.0762200	0.4954600	-0.1713700	0.1188900	0.6520600	0.8143400	-0.1841200	0.5461200	0.3099700	-0.1811200	0.5293800	-0.1760300	-0.2403700	0.7778000	-0.2180800	-0.2826400	0.7166300	-0.2248600	-0.3180500	0.4687000	-0.2436600	-0.2225200	0.6969900	-0.2419200	0.1801300	0.6494400	-0.2412300	0.2247000	0.4629800	-0.2226900	0.0993400
6	0.0833333	0.5764400	1.3813800	-0.0524500	0.5963900	1.3638600	0.1168700	0.5684600	1.0489000	0.1993800	0.6617700	0.7641900	0.2421400	0.5709800	1.4278800	-0.2244000	0.7271200	1.6199700	-0.4154800	0.7871800	1.9143400	-0.3838100	0.6522000	0.8126400	-0.0566500	0.6518900	0.8077600	0.0664400	0.5718600	0.3030300	0.0760100	0.4947900	-0.1748900	0.1195400	0.6519500	0.8141800	-0.1841200	0.5460500	0.3102600	-0.1811200	0.5293200	-0.1761200	-0.2403800	0.7774100	-0.2182300	-0.2822900	0.7163600	-0.2249900	-0.3177300	0.4689400	-0.2435700	-0.2226300	0.7075700	-0.2383800	0.1832300	0.6494400	-0.2413200	0.2245400	0.4634600	-0.2221900	0.0996200
7	0.1000000	0.5761500	1.3814400	-0.0529800	0.5965600	1.3609900	0.1166000	0.5678600	1.0459500	0.1995800	0.6620600	0.7570200	0.2420900	0.5798100	1.4281800	-0.2282600	0.7337600	1.6410800	-0.4121600	0.7801800	1.9403200	-0.3859200	0.6525600	0.8094100	-0.0565300	0.6512000	0.8044000	0.0664000	0.5713100	0.3029300	0.0762100	0.4947700	-0.1746900	0.1195400	0.6520800	0.8141600	-0.1841400	0.5461800	0.3099500	-0.1810700	0.5293400	-0.1761100	-0.2403700	0.7777400	-0.2181500	-0.2825700	0.7166200	-0.2249300	-0.3179900	0.4686300	-0.2436900	-0.2225200	0.7071800	-0.2382700	0.1831200	0.6496900	-0.2411400	0.2247600	0.4617000	-0.2256500	0.1000700
8	0.1166667	0.5661600	1.3816900	-0.0562800	0.5963900	1.3611200	0.1168100	0.5772500	1.0494700	0.1945100	0.6620000	0.7600900	0.2418300	0.5792600	1.4317100	-0.2285800	0.7251100	1.6496200	-0.4082100	0.7703500	1.9420500	-0.3830900	0.6521300	0.8125900	-0.0566900	0.6518300	0.8078200	0.0664200	0.5717300	0.3029300	0.0760000	0.4941200	-0.1708200	0.1201700	0.6518900	0.8140200	-0.1841800	0.5460100	0.3101700	-0.1811600	0.5290300	-0.1801000	-0.2409000	0.7774700	-0.2182700	-0.2823100	0.7164300	-0.2250900	-0.3177400	0.4685000	-0.2472000	-0.2232200	0.7075000	-0.2348500	0.1838900	0.6596500	-0.2375800	0.2273200	0.4618600	-0.2250900	0.1003200
9	0.1333333	0.5851000	1.3812500	-0.0574700	0.5965700	1.3610200	0.1165900	0.5769100	1.0494300	0.1946400	0.6620100	0.7602800	0.2418000	0.5799000	1.4282300	-0.2283700	0.7243300	1.6603800	-0.4081100	0.7701500	1.9499700	-0.3828500	0.6522400	0.8126600	-0.0567200	0.6512500	0.8077400	0.0661900	0.5709400	0.3028900	0.0763600	0.4941500	-0.1706000	0.1201700	0.6519500	0.8141800	-0.1842000	0.5461300	0.3099000	-0.1811000	0.5293600	-0.1761600	-0.2403800	0.7777100	-0.2181700	-0.2826000	0.7166200	-0.2249400	-0.3180200	0.4682500	-0.2472800	-0.2230800	0.7068700	-0.2348000	0.1837700	0.6496800	-0.2409900	0.2248200	0.4614700	-0.2253900	0.1000300
10	0.1500000	0.5852900	1.3812600	-0.0569100	0.5965400	1.3610300	0.1168000	0.5773300	1.0493900	0.1945500	0.6615300	0.7608600	0.2422400	0.5798700	1.4278300	-0.2284300	0.7156900	1.6719900	-0.4037800	0.7773700	1.9553800	-0.3788800	0.6520400	0.8126400	-0.0566900	0.6517600	0.8077900	0.0663900	0.5716100	0.3030400	0.0760900	0.4941300	-0.1708200	0.1201400	0.6431000	0.8131000	-0.1802200	0.5459800	0.3102100	-0.1811400	0.5293700	-0.1762500	-0.2404000	0.7776900	-0.2181600	-0.2824300	0.7256300	-0.2216300	-0.3215500	0.4686200	-0.2472000	-0.2232300	0.7074700	-0.2348400	0.1838800	0.6496600	-0.2411800	0.2245400	0.4618100	-0.2249700	0.1002800
11	0.1666667	0.5853700	1.3812600	-0.0574300	0.5967100	1.3609400	0.1165300	0.5769800	1.0494400	0.1946000	0.6615600	0.7569800	0.2419600	0.5799200	1.4282800	-0.2283100	0.6971600	1.6738500	-0.3967700	0.7432200	1.9652300	-0.3713900	0.6522100	0.8126500	-0.0567300	0.6512500	0.8077100	0.0661800	0.5622000	0.3007300	0.0807900	0.4940500	-0.1737200	0.1207500	0.6518800	0.8141700	-0.1842100	0.5461400	0.3099000	-0.1810700	0.5293700	-0.1761000	-0.2403800	0.7779600	-0.2180500	-0.2827300	0.7258500	-0.2215100	-0.3218400	0.4686900	-0.2437200	-0.2225500	0.7170900	-0.2343700	0.1860100	0.6679700	-0.2341900	0.2229900	0.4603200	-0.2213700	0.1006900
12	0.1833333	0.5857100	1.3812300	-0.0569800	0.6049400	1.3608500	0.1123300	0.5773200	1.0494100	0.1945100	0.6613200	0.7567100	0.2419400	0.5805700	1.4312700	-0.2284100	0.6965800	1.6812800	-0.3883400	0.7159300	1.9759700	-0.3603500	0.6522500	0.8094700	-0.0565100	0.6517900	0.8077400	0.0663800	0.5628300	0.3009100	0.0806000	0.4939000	-0.1739400	0.1207500	0.6518100	0.8142200	-0.1841500	0.5460700	0.3103100	-0.1811100	0.5293500	-0.1760700	-0.2403900	0.7777600	-0.2181000	-0.2824700	0.7257100	-0.2215100	-0.3215800	0.4690500	-0.2436100	-0.2226800	0.7176200	-0.2344300	0.1861300	0.6596600	-0.2372900	0.2273200	0.4498400	-0.2246500	0.0977700
13	0.2000000	0.5851100	1.3852000	-0.0576100	0.5967900	1.3635500	0.1165500	0.5861100	1.0530300	0.1896300	0.6515800	0.7555600	0.2391200	0.5797100	1.4356000	-0.2284000	0.7042100	1.6876600	-0.3850200	0.7148800	1.9769400	-0.3534800	0.6523300	0.8127400	-0.0567200	0.6513100	0.8077500	0.0662100	0.5709700	0.3030000	0.0763300	0.4938900	-0.1737600	0.1207400	0.6520300	0.8143300	-0.1842100	0.5462600	0.3100700	-0.1810500	0.5293300	-0.1760000	-0.2403600	0.7872000	-0.2173500	-0.2859600	0.7260700	-0.2213700	-0.3219000	0.4687000	-0.2437600	-0.2225300	0.7171400	-0.2345600	0.1860200	0.6598800	-0.2372600	0.2275700	0.4399100	-0.2281600	0.1021400
14	0.2166667	0.5852700	1.3852500	-0.0570200	0.5967700	1.3591100	0.1168800	0.5865500	1.0530100	0.1895400	0.6514000	0.7553600	0.2391100	0.5799200	1.4352900	-0.2284700	0.7035400	1.6954600	-0.3770800	0.7055300	1.9920400	-0.3574200	0.6522000	0.8127100	-0.0567100	0.6518300	0.8078400	0.0664000	0.5529500	0.2986300	0.0775400	0.4941500	-0.1771000	0.1213500	0.6519400	0.8142500	-0.1841900	0.5460600	0.3070700	-0.1806600	0.5293400	-0.1760700	-0.2403700	0.7868300	-0.2174300	-0.2856700	0.7348000	-0.2181000	-0.3253400	0.4690900	-0.2436300	-0.2226500	0.7093500	-0.2340900	0.1912300	0.6596200	-0.2374300	0.2274100	0.4497900	-0.2247800	0.0978200
